<svg xmlns="http://www.w3.org/2000/svg" xmlns:xlink="http://www.w3.org/1999/xlink" viewBox="0 0 256 256"><defs><style>.cls-1{fill:#1da9da;}.cls-2{clip-path:url(#clip-path);}.cls-3{fill-opacity:0.1;}.cls-4{fill:#fff;}</style><clipPath id="clip-path"><path class="cls-1" d="M256,246a10,10,0,0,1-10,10H10A10,10,0,0,1,0,246V10A10,10,0,0,1,10,0H246a10,10,0,0,1,10,10"/></clipPath></defs><title>asaas-icon</title><g id="Layer_2" data-name="Layer 2"><g id="Layer_1-2" data-name="Layer 1"><path class="cls-1" d="M256,246a10,10,0,0,1-10,10H10A10,10,0,0,1,0,246V10A10,10,0,0,1,10,0H246a10,10,0,0,1,10,10"/><g class="cls-2"><path class="cls-3" d="M132.47,124.78c6.54-23,34.6-40.08,38.92-42.63C221,52.76,211,50.7,218.12,46.51a1.23,1.23,0,0,1,.68-.19,3.55,3.55,0,0,1,2.32,1.55L256,83V256H132.37L81.28,204.92a5.09,5.09,0,0,1-2-4,5.68,5.68,0,0,1,.8-3l0-.06,13.64-21.36L74.19,157c-8.14-8-10.93-15-7.75-21.6-.32-.32-6.63-6.62-6.95-7-10.13-9.81-14.66-23.68-11.82-29.86-.15-.16-3.13-3.13-3.45-3.47C32.09,83.64,29.16,57.19,33.31,50.18c.58-1,2.29-3.86,3.9-3.86a1.22,1.22,0,0,1,.67.19,8.79,8.79,0,0,1,2.42,2c.39.33,14.22,14.19,14.32,14.28,6.23,4.65,15.61,10.87,30,19.38A121.39,121.39,0,0,1,108,100.32Z"/><path class="cls-4" d="M222.69,50.18c-.67-1.12-2.8-4.72-4.57-3.67C211,50.7,221,52.76,171.39,82.15c-5.91,3.5-56.39,34.18-35,70.22,3.11,5.25,10.16,16.92,13.61,22.62h-43.9c3.45-5.7,10.5-17.37,13.61-22.62,21.34-36-29.14-66.72-35-70.22C35,52.76,45,50.7,37.88,46.51c-1.77-1-3.9,2.55-4.57,3.67C28.76,57.87,32.72,88.93,48,98c-4.2,7.1,3.32,27,19.07,36.27-6.56,11.07,4.06,23.35,28.77,39L80.08,197.89l0,.06a5.68,5.68,0,0,0-.8,3c0,3,2.78,5.42,6.34,5.42a6.53,6.53,0,0,0,5.67-3l11.12-17.64h51.4l11.16,17.55a6.52,6.52,0,0,0,5.73,3.06c3.55,0,6.33-2.38,6.33-5.42a5.06,5.06,0,0,0-1-3.11l-15.74-24.61c24.66-15.61,35.25-27.88,28.7-38.94C204.69,124.92,212.21,105.07,208,98,223.28,88.93,227.24,57.87,222.69,50.18Z"/></g></g></g></svg>